<svg xmlns="http://www.w3.org/2000/svg" version="1.1" xmlns:xlink="http://www.w3.org/1999/xlink" xmlns:svgjs="http://svgjs.dev/svgjs" viewBox="0 0 6.637440691734255 5.2768873308998305"><g transform="matrix(1,0,0,1,3.3154397508246243,4.971853429989719)"><g transform="matrix(1,0,0,1,0,0)"><path d=" M -2.561951864287507 -0.9883808826277867 L -2.4875458489452917 -0.7984341930517532 L -1.9847457883028503 -0.9953912924870288 L -1.9136223912845562 -0.8138246039217026 L -2.416422451926998 -0.616867504486427 L -2.3416517012154583 -0.42598970368698164 L -2.499940609195486 -0.3639846909018023 L -2.7202407722675352 -0.9263758698426073 L -2.561951864287507 -0.9883808826277867 M -2.814246433808263 -1.8588445530773097 L -2.104924415465287 -1.8898650993949877 L -2.0964046879555025 -1.6950513056247338 L -2.3741392247151465 -1.6829052325595022 L -2.3637407880621786 -1.4451324996501667 L -2.086006251302534 -1.4572785727153983 L -2.0774865237927496 -1.2624647789451444 L -2.7868085421357254 -1.2314442326274664 L -2.79532826964551 -1.4262580263977203 L -2.5335784544259896 -1.4377050448980466 L -2.5439768910789575 -1.6754777778073822 L -2.8057267062984783 -1.6640307593070558 L -2.814246433808263 -1.8588445530773097 M -2.101320088425491 -2.5500268980489453 L -1.9379162691248135 -2.5031313562784145 L -2.0774994699241582 -2.0167646941246336 L -2.7599507152387517 -2.212622545048615 L -2.6228502195919647 -2.6903384167688307 L -2.459446400291287 -2.6434428749983 L -2.542754950965995 -2.353160796005332 L -2.446635057259714 -2.3255751831991374 L -2.375464176219732 -2.5735645089613417 L -2.2235947441638086 -2.5299792407275543 L -2.2947656252037905 -2.28198991496535 L -2.187111344252756 -2.251094028622412 L -2.101320088425491 -2.5500268980489453 M -1.8848804746026215 -3.4259199617922143 Q -1.8848804746026215 -3.4259199617922143 -1.9033443604620668 -3.4189856327713657 Q -1.9218082463215118 -3.412051303750517 -1.949131455042898 -3.398133966894367 Q -1.9764546637642844 -3.384216630038216 -2.004976864046437 -3.364839218160858 Q -2.03349906432859 -3.3454618062835006 -2.053615693174005 -3.3205756405704827 Q -2.069331809459486 -3.301133323607187 -2.073168582453939 -3.2836610835393243 Q -2.0770053554483923 -3.266188843471461 -2.062229194556288 -3.254244595094496 Q -2.048230726342715 -3.2429289913689496 -2.029617792456157 -3.2484569830598473 Q -2.0110048585695997 -3.253984974750745 -1.985460607245946 -3.2712691069046604 Q -1.9599163559222923 -3.288553239058576 -1.9240319203931902 -3.3122662584099305 Q -1.8669875198288846 -3.351021082164646 -1.8165925669189342 -3.372005569797273 Q -1.766197614008984 -3.3929900574299006 -1.7183562995915453 -3.387749958689249 Q -1.6705149851741066 -3.3825098599485974 -1.6184095757124748 -3.340390668303509 Q -1.5686372442864385 -3.3001574106126785 -1.5492664397529465 -3.25492443666971 Q -1.5298956352194546 -3.2096914627267417 -1.5341927669829776 -3.163016687327101 Q -1.5384898987465 -3.11634191192746 -1.5597213762115074 -3.0717832498666113 Q -1.5809528536765145 -3.0272245878057626 -1.612385086247476 -2.988339953879172 Q -1.6444459634698567 -2.948677627274049 -1.687501514748208 -2.912116452455435 Q -1.7305570660265595 -2.8755552776368214 -1.777633902453198 -2.8467451844044223 Q -1.8247107388798367 -2.8179350911720236 -1.871184775854159 -2.800210422280636 L -1.9513640731638846 -2.973034842669997 Q -1.9513640731638846 -2.973034842669997 -1.9294588679931182 -2.9810449604236027 Q -1.9075536628223517 -2.9890550781772083 -1.87514299914754 -3.0052892667974698 Q -1.842732335472728 -3.0215234554177317 -1.8079399149478674 -3.0454762730812392 Q -1.7731474944230068 -3.0694290907447472 -1.7473730637148184 -3.101314490564552 Q -1.7272564348694028 -3.12620065627757 -1.726008764494183 -3.1412652942962813 Q -1.724761094118963 -3.1563299323149927 -1.7356487916184085 -3.1651309574348616 Q -1.7519803378675767 -3.1783324951146654 -1.7747539860019157 -3.1684526696782864 Q -1.7975276341362547 -3.158572844241908 -1.8280102923862214 -3.1375655229939303 Q -1.8584929506361882 -3.1165582017459528 -1.8964123681466607 -3.0919184416889536 Q -1.9517198827838211 -3.0569030332997844 -1.9974745248216834 -3.0424544094211217 Q -2.043229166859546 -3.0280057855424585 -2.0835591980029227 -3.0361751544271556 Q -2.1238892291462994 -3.044344523311853 -2.164329248429954 -3.077034045185653 Q -2.2257669700339675 -3.126696972647772 -2.2437248298936425 -3.1887897682786686 Q -2.261682689753317 -3.250882563909565 -2.245036237002079 -3.315220698874769 Q -2.2283897842508407 -3.379558833839973 -2.1843846586514943 -3.4339973213372 Q -2.1516951367776946 -3.474437340620855 -2.111484712702214 -3.5042973773869077 Q -2.071274288626734 -3.5341574141529604 -2.0305584227278435 -3.5558937492650164 Q -1.9898425568289535 -3.5776300843770725 -1.9572828451270292 -3.592457935667383 L -1.8848804746026215 -3.4259199617922143 M -1.2311135723816098 -4.019215709759655 L -1.3984806879224108 -3.9025784574105353 L -1.089735019939447 -3.459547857449592 L -1.2497182921475658 -3.348056366233522 L -1.5584639601305292 -3.7910869661944653 L -1.726651502708295 -3.67387796260834 L -1.8238492129992279 -3.813350558892341 L -1.3283112826725427 -4.158688306043656 L -1.2311135723816098 -4.019215709759655 M -0.9699257830004462 -4.299912540816692 L -0.7626083156577171 -4.367317790868868 L -0.3281520076003672 -3.7619883628801265 L -0.5164495238107358 -3.700767080722645 L -0.6003209956134419 -3.819660210118956 L -0.7800595338142482 -3.761221713514087 L -0.7770228543240741 -3.616046720565322 L -0.9662713680910607 -3.5545162400131054 L -0.9699257830004462 -4.299912540816692 M -0.6699977111841189 -3.9337047422425213 L -0.8072101559347433 -4.151974632528738 L -0.7926763959878438 -3.8938181493217376 L -0.6699977111841189 -3.9337047422425213 M -0.2604947725941417 -3.7628744129010507 L -0.25507072036777606 -4.472853694047653 L 0.07091976646855108 -4.470363213729631 Q 0.1229182490314008 -4.469965959200376 0.16675653533238222 -4.448630433563702 Q 0.21059482163336363 -4.427294907927028 0.24232268521456823 -4.3915514795440025 Q 0.27405054879577295 -4.355808051160977 0.29121389967197775 -4.311675643718143 Q 0.30837725054818255 -4.26754323627531 0.30803347259017344 -4.222544549442074 Q 0.3077202526728763 -4.181545745882905 0.295430301463917 -4.14363852890142 Q 0.28314035025495765 -4.105731311919934 0.25990037685847545 -4.074407939870763 Q 0.23666040346199335 -4.043084567821592 0.20448562853537688 -4.020329703321411 L 0.3524873391563752 -3.7581913931619493 L 0.1384935839938783 -3.759826248340037 L 0.015162644898135291 -3.9787748255488466 L -0.06383504976465565 -3.979378346852907 L -0.06550046298345524 -3.7613847084163448 L -0.2604947725941417 -3.7628744129010507 M -0.0625363330343991 -4.149373386000685 L 0.06046007764311084 -4.148433726248793 Q 0.07245972746530693 -4.148342052126658 0.0835281620605885 -4.157257754881347 Q 0.09459659665587006 -4.166173457636036 0.10222624946776826 -4.183115665224479 Q 0.10985590227966652 -4.2000578728129225 0.11003925052393804 -4.224057172457314 Q 0.11023023827838752 -4.249056442920223 0.10185653823893526 -4.265620897262256 Q 0.09348283819948305 -4.282185351604288 0.0810519585596306 -4.2912805828481595 Q 0.06862107891977814 -4.300375814092032 0.05662142909758211 -4.300467488214167 L -0.06137512748734614 -4.301368950415169 L -0.0625363330343991 -4.149373386000685 M 1.2300516095475384 -3.9328716685405465 Q 1.2300516095475384 -3.9328716685405465 1.2187129801847396 -3.9490096821783234 Q 1.2073743508219406 -3.9651476958161003 1.1870560162008812 -3.9881132195032856 Q 1.1667376815798218 -4.01107874319047 1.140833012708731 -4.0338372170118655 Q 1.11492834383764 -4.0565956908332605 1.085796264821056 -4.069836611200498 Q 1.0630368280893496 -4.080181080237401 1.0451605584892483 -4.079518520666873 Q 1.0272842888891471 -4.0788559610963455 1.0194224924211004 -4.061558789180249 Q 1.0119744747145298 -4.04517199473342 1.0219889478465845 -4.028537382387851 Q 1.032003420978639 -4.011902770042282 1.0551355474687671 -3.9915028993553214 Q 1.0782676739588954 -3.9711030286683613 1.110214026299704 -3.942303192347352 Q 1.162023364041886 -3.8967862447045616 1.1949632347683825 -3.8532550499527325 Q 1.227903105494879 -3.809723855200903 1.2348148798560699 -3.762095319897159 Q 1.2417266542172607 -3.714466784593415 1.2140034771983592 -3.653471494152442 Q 1.1875216364638863 -3.5952073361192736 1.1485835785465044 -3.5651228277200557 Q 1.1096455206291223 -3.5350383193208383 1.0633825515292807 -3.527505876817433 Q 1.017119582429439 -3.519973434314028 0.9686630081475873 -3.529365473968298 Q 0.9202064338657354 -3.5387575136225675 0.8746875604023228 -3.559446451696375 Q 0.8282583094696419 -3.580549168531658 0.7820770369207533 -3.6130728532209004 Q 0.7358957643718647 -3.645596537910143 0.696211043057224 -3.683955016688365 Q 0.6565263217425834 -3.722313495466587 0.6277245596009521 -3.7628654189417676 L 0.7749524352319055 -3.883782550222643 Q 0.7749524352319055 -3.883782550222643 0.7881946394795569 -3.864582445361901 Q 0.8014368437272084 -3.845382340501159 0.8252726187909185 -3.818071979333423 Q 0.8491083938546289 -3.7907616181656865 0.8810133362222794 -3.7630790486946837 Q 0.91291827858993 -3.735396479223681 0.9502437548299284 -3.718431550003159 Q 0.9793758338465126 -3.7051906296359225 0.9942726716849128 -3.707756603606251 Q 1.0091695095233133 -3.710322577576579 1.0149624121839793 -3.7230678621463347 Q 1.0236517661749782 -3.742185789000968 1.0083819176080522 -3.7617582626500283 Q 0.9931120690411264 -3.781330736299088 0.9651383458776028 -3.805578845758808 Q 0.9371646227140793 -3.8298269552185276 0.9038112941962103 -3.860364726531757 Q 0.8560572450925775 -3.9051369365979114 0.8306072835009651 -3.9458130899925656 Q 0.8051573219093526 -3.98648924338722 0.802963074787135 -4.0275798174835575 Q 0.8007688276649173 -4.068670391579896 0.8222853232616767 -4.116010019981845 Q 0.8549738454182918 -4.1879298400540375 0.9105880861394527 -4.220870031750637 Q 0.9662023268606136 -4.253810223447237 1.0326590796919368 -4.253811988782808 Q 1.09911583252326 -4.2538137541183785 1.162842255372038 -4.224849240815049 Q 1.210181883773987 -4.203332745218289 1.2491629565150457 -4.171884756920843 Q 1.2881440292561042 -4.140436768623397 1.3193870539934345 -4.1064643768138325 Q 1.3506300787307646 -4.072491985004268 1.3731416975637305 -4.044685025128739 L 1.2300516095475384 -3.9328716685405465 M 1.9712814853275233 -3.4393443693134964 L 1.8185167728211638 -3.5745440091534357 L 1.4606353732448536 -3.1701668289895433 L 1.3146102804078923 -3.299401778836544 L 1.6724916799842027 -3.7037789590004366 L 1.51897812084791 -3.839641342172925 L 1.631644487381193 -3.966945269261558 L 2.083947851860806 -3.5666482964021293 L 1.9712814853275233 -3.4393443693134964 M 1.8127785913128256 -2.702150581640015 Q 1.7706653317442684 -2.7759846751775625 1.7647646939250843 -2.84284409839768 Q 1.7588640561059001 -2.9097035216177978 1.7823524101053165 -2.967423078324326 Q 1.805840764104733 -3.025142635030854 1.852081073132971 -3.072239172281198 Q 1.8983213821612093 -3.119335709531542 1.9591259297803663 -3.1540172174115297 L 2.2761782137945414 -3.3348565085000397 L 2.372790985745937 -3.16547241156096 L 2.055738701731762 -2.98463312047245 Q 2.0253364279221833 -2.967292366532456 2.001008214084282 -2.94535750816826 Q 1.9766800002463805 -2.923422649804064 1.9623958420709648 -2.8980068510713917 Q 1.948111683895549 -2.8725910523387195 1.9471595338198626 -2.8449940704342906 Q 1.9462073837441762 -2.817397088529862 1.963052687571599 -2.787863451114843 Q 1.980393441511593 -2.7574611773052644 2.0048794719344145 -2.7437979304681224 Q 2.0293655023572357 -2.7301346836309803 2.0586997570507832 -2.7301734337804366 Q 2.088034011744331 -2.7302121839298925 2.1192985271582296 -2.739986132770257 Q 2.150563042572129 -2.7497600816106216 2.180096679987148 -2.766605385438045 L 2.4971489640013234 -2.9474446765265547 L 2.593761735952719 -2.7780605795874744 L 2.276709451938544 -2.5972212884989645 Q 2.212430358741149 -2.5605579801686913 2.147176352294209 -2.545787582658039 Q 2.081922345847269 -2.531017185147386 2.0209052445181395 -2.541112399131782 Q 1.9598881431890098 -2.551207613116177 1.906894546922625 -2.5906306870038818 Q 1.85390095065624 -2.630053760891586 1.8127785913128256 -2.702150581640015 M 2.013805722082071 -2.311280868850916 L 2.7137604509063493 -2.4302908583330223 L 2.7595206299607367 -2.1611533358414334 Q 2.779299754973256 -2.0448228316143 2.7457975641911068 -1.9584856831045392 Q 2.712295373408958 -1.8721485345947784 2.6397229070761 -1.8187281533684505 Q 2.567150440743242 -1.7653077721421226 2.470536971130877 -1.748881041199522 Q 2.3640649842111277 -1.730778113221962 2.2777377689464853 -1.761238938960148 Q 2.191410553681843 -1.7916997646983335 2.1345396913979306 -1.8636855620689556 Q 2.0776688291140184 -1.9356713594395778 2.0595659011364584 -2.0421433463593273 L 2.013805722082071 -2.311280868850916 M 2.437348269838684 -1.9440796838857293 Q 2.491570115029297 -1.953298767578005 2.5292981874885188 -1.9789861681571157 Q 2.567026259947741 -2.0046735687362265 2.583666540428871 -2.044019484223216 Q 2.6003068209100015 -2.0833653997102055 2.5919258357352053 -2.1326579862471267 L 2.578851498862523 -2.2095544212447233 L 2.2140863584893076 -2.147535130951231 L 2.22716069536199 -2.0706386959536345 Q 2.235709300240282 -2.020360257685975 2.2653202412521094 -1.9893853941286632 Q 2.294931182263937 -1.9584105305713515 2.3400146551867422 -1.9468031850858982 Q 2.3850981281095476 -1.9351958396004452 2.437348269838684 -1.9440796838857293 M 2.0943177160643507 -1.5980105830704676 L 2.802059723613475 -1.5414309864800473 L 2.786520256944275 -1.3470511393362736 L 2.0787782493951505 -1.403630735926694 L 2.0943177160643507 -1.5980105830704676 M 1.9684531884317056 -0.9736333373648419 Q 1.9954404612041412 -1.050005368294405 2.046187460541579 -1.1020725562177618 Q 2.0969344598790163 -1.1541397441411183 2.161317855552636 -1.1817672369975851 Q 2.2257012512262557 -1.209394729854052 2.295012009876304 -1.2119479112723452 Q 2.364322768526353 -1.2145010926906386 2.429380424503388 -1.1915119344030083 Q 2.4963238096391778 -1.1678564237012437 2.5476713851285147 -1.121075802805761 Q 2.5990189606178515 -1.0742951819102786 2.6304745758336514 -1.0117408513535895 Q 2.6619301910494517 -0.9491865207969004 2.6671170460814313 -0.8768239162633623 Q 2.6723039011134113 -0.8044613117298243 2.64598298075511 -0.7299750099590157 Q 2.6189957079826742 -0.6536029790294525 2.568248708645237 -0.601535791106096 Q 2.5175017093077994 -0.5494686031827394 2.4528134694480244 -0.5224791307194947 Q 2.38812522958825 -0.49548965825625013 2.318814470938201 -0.4929364768379567 Q 2.2495037122881527 -0.4903832954196634 2.1853889208904946 -0.5130392775002267 Q 2.119388400334082 -0.5363616119949242 2.0678742367412117 -0.5826708006007181 Q 2.0163600731483413 -0.6289799892065121 1.9849044579325412 -0.6915343197632011 Q 1.9534488427167411 -0.7540886503198901 1.947623967291539 -0.8261464106672731 Q 1.941799091866337 -0.8982041710146561 1.9684531884317056 -0.9736333373648419 M 2.3615258063453464 -1.0054911001004325 Q 2.3275826814877627 -1.0174854435548484 2.2926649560079513 -1.0192182006978232 Q 2.25774723052814 -1.020950957840798 2.2260977950332985 -1.01092283574053 Q 2.194448359538457 -1.0008947136402617 2.169672084242562 -0.9773015751787936 Q 2.144895808946667 -0.9537084367173254 2.1309024082498484 -0.9141081243834779 Q 2.11690900755303 -0.8745078120496302 2.1216663784039866 -0.8399481907758595 Q 2.1264237492549434 -0.8053885695020888 2.1458555891500115 -0.7778403645098856 Q 2.165287429045079 -0.7502921595176824 2.1937082184870818 -0.7301735430768497 Q 2.2221290079290847 -0.7100549266360171 2.255129268207291 -0.6983937593886683 Q 2.289072393064875 -0.6863994159342525 2.3235186862549972 -0.6848332468948112 Q 2.35796497944512 -0.6832670778553698 2.3896144149399614 -0.6932951999556379 Q 2.4212638504348027 -0.7033233220559061 2.445735281544543 -0.7275544809105965 Q 2.470206712654283 -0.7517856397652869 2.4838669371440343 -0.7904430875197572 Q 2.497860337840853 -0.8300433998536048 2.4929363788863625 -0.8641315888376868 Q 2.488012419931872 -0.8982197778217689 2.469690032719715 -0.9259062388965936 Q 2.451367645507558 -0.9535926999714185 2.4229468560655554 -0.9737113164122511 Q 2.3945260666235524 -0.9938299328530837 2.3615258063453464 -1.0054911001004325" fill="#f9f9f9" fill-rule="nonzero"></path></g><g transform="matrix(1,0,0,1,0,0)"><g clip-path="url(#SvgjsClipPath1002)"><g clip-path="url(#SvgjsClipPath1001c16d95f2-1670-4685-963f-800aac15f7ae)"><path d=" M -0.5270259508032464 -2.9301603949740667 L -1.2593147961423825 -2.1978123448773483 L -1.2593147961423825 -1.1622027252575673 L -0.5270259508032464 -0.42991387991843144 L 0.5085836688165347 -0.42991387991843144 L 1.2408725141556705 -1.1622027252575673 L 1.2408725141556705 -2.1978123448773483 L 0.5085836688165347 -2.9301603949740667 Z M 0.5320139516295083 -2.986730540843418 L -0.5504562336162198 -2.986730540843418 L -1.3158257372541526 -2.22118342293274 L -1.3158257372541526 -1.138772442444594 L -0.5504562336162198 -0.3733437340490795 L 0.5320139516295083 -0.3733437340490795 L 1.2974426600250233 -1.138772442444594 L 1.2974426600250233 -2.22118342293274 Z" fill="#3682ae" transform="matrix(1,0,0,1,0,0)" fill-rule="evenodd"></path></g><g clip-path="url(#SvgjsClipPath1001c16d95f2-1670-4685-963f-800aac15f7ae)"><path d=" M -0.4729128023735368 -2.7870476947096074 L -1.1286054925912978 -2.131355004491846 L -1.1286054925912978 -1.2039864829208793 L -0.4729128023735368 -0.548293792703118 L 0.45439651443984796 -0.548293792703118 L 1.110089204657609 -1.2039864829208793 L 1.110089204657609 -2.1312957997342643 L 0.45439651443984796 -2.7869884899520256 Z M 0.4778860020104033 -2.8436178405789594 L -0.49634308518651027 -2.8436178405789594 L -1.1852200420288361 -2.1547260825472376 L -1.1852200420288361 -1.1804969953503246 L -0.49634308518651005 -0.49160523731860284 L 0.4778860020104033 -0.49160523731860284 L 1.166777760042125 -1.1804969953503246 L 1.166777760042125 -2.1547260825472376 Z" fill="#3682ae" transform="matrix(1,0,0,1,0,0)" fill-rule="evenodd"></path></g><g clip-path="url(#SvgjsClipPath1001c16d95f2-1670-4685-963f-800aac15f7ae)"><path d=" M 0.9808156164778817 -2.6576556970147167 L -0.999243097275198 -2.6576556970147167 L -0.999243097275198 -0.6775969832616366 L 0.9808156164778817 -0.6775969832616366 Z M -1.0558280443339452 -2.714225842884068 L -1.0558280443339452 -0.6210120362028895 L 1.0373857623472338 -0.6210120362028895 L 1.0373857623472338 -2.714225842884068 Z" fill="#3682ae" transform="matrix(1,0,0,1,0,0)" fill-rule="evenodd"></path></g><g clip-path="url(#SvgjsClipPath1001c16d95f2-1670-4685-963f-800aac15f7ae)"><path d=" M 1.400192516808131 -1.667618939543479 L 0 -3.067737450404633 L -1.4001185108611538 -1.667618939543479 L 0 -0.267426422735348 Z M 0 -3.1477378790869577 L -1.4801189395434788 -1.667618939543479 L 0 -0.1875 L 1.480118939543479 -1.667618939543479 Z" fill="#3682ae" transform="matrix(1,0,0,1,0,0)" fill-rule="evenodd"></path></g><path d=" M -0.4395260347598764 -1.3297359735908352 C -0.4765860344530541 -1.3297359735908352 -0.5072763466989669 -1.3321969891954601 -0.5315969714976148 -1.3371190204047103 C -0.5559175962962626 -1.3420410516139605 -0.5790800961044987 -1.3517403484086594 -0.601084470922323 -1.366216910788807 C -0.6433560330723538 -1.3945909730538961 -0.6644918141473692 -1.4536553475648981 -0.6644918141473692 -1.543410034321813 L -0.6644918141473692 -1.678910658199994 L -0.7079215012878118 -1.678910658199994 C -0.7142911887350768 -1.678910658199994 -0.7197922824395329 -1.685569876894862 -0.72442478240118 -1.6988883142845976 C -0.7290572823628273 -1.7122067516743331 -0.7313735323436509 -1.730447220273319 -0.7313735323436509 -1.7536097200815552 C -0.7313735323436509 -1.7767722198897913 -0.727754391748614 -1.7971841728457993 -0.7205161105585403 -1.8148455789495794 C -0.7132778293684665 -1.8325069850533595 -0.7038680638213706 -1.8413376881052494 -0.6922868139172526 -1.8413376881052494 L -0.6644918141473692 -1.8413376881052494 L -0.6644918141473692 -1.9464375309851207 C -0.6644918141473692 -1.9643884683365036 -0.6469751736673907 -1.978865030716651 -0.6119418927074336 -1.9898672181255632 C -0.5769086117474767 -2.0008694055344756 -0.5425991589065269 -2.0063704992389315 -0.5090135341845846 -2.0063704992389315 C -0.4563188471208476 -2.0063704992389315 -0.429971503588979 -1.9933415930967986 -0.429971503588979 -1.967283780812533 L -0.429971503588979 -1.8413376881052494 L -0.3656955666211239 -1.8413376881052494 C -0.35063994174577046 -1.8413376881052494 -0.34311212930809376 -1.819622844535028 -0.34311212930809376 -1.7761931573945855 C -0.34311212930809376 -1.7478190951294963 -0.3464417386555277 -1.7245118296974589 -0.35310095735039554 -1.706271361098473 C -0.3597601760452634 -1.688030892499487 -0.3683013478495505 -1.678910658199994 -0.37872447276325666 -1.678910658199994 L -0.429971503588979 -1.678910658199994 L -0.429971503588979 -1.5199580032659739 C -0.429971503588979 -1.5043233158954146 -0.42331228489411116 -1.4931763628627008 -0.4099938475043754 -1.486517144167833 C -0.3966754101146397 -1.4798579254729654 -0.3849493945867202 -1.4765283161255311 -0.37481580092061684 -1.4765283161255311 C -0.36468220725451356 -1.4765283161255311 -0.35845728543105015 -1.4716062849162812 -0.35614103545022646 -1.4617622224977809 C -0.3538247854694029 -1.4519181600792805 -0.3526666604789911 -1.4371520664515298 -0.3526666604789911 -1.4174639416145292 C -0.3526666604789911 -1.3786667544357338 -0.35787822293584426 -1.354346129637086 -0.36830134784955043 -1.3445020672185857 C -0.37872447276325666 -1.3346580048000853 -0.40246603506669865 -1.3297359735908352 -0.4395260347598764 -1.3297359735908352 M -0.054743671993978005 -1.3288673798480264 C -0.15086804619815752 -1.3288673798480264 -0.22122413936567464 -1.3381323797713207 -0.2658119514965291 -1.3566623796179096 C -0.2883953888095592 -1.36650644203641 -0.29968710746607435 -1.3760609732073072 -0.29968710746607435 -1.3853259731306018 C -0.29968710746607435 -1.4090675354340436 -0.29273835752360355 -1.436862535203927 -0.2788408576386619 -1.4687109724402516 C -0.26494335775372024 -1.5005594096765762 -0.25278304535439633 -1.5164836282947385 -0.2423599204406901 -1.5164836282947385 C -0.23656929548863104 -1.5164836282947385 -0.21702593627543187 -1.5101139408474737 -0.1837298428010925 -1.4973745659529438 C -0.15043374932675313 -1.484635191058414 -0.12234921830926693 -1.4782655036111492 -0.09947624974863378 -1.4782655036111492 C -0.07660328118800064 -1.4782655036111492 -0.06154765631264714 -1.4797131598491637 -0.05430937512257339 -1.482608472325193 C -0.04707109393249964 -1.4855037848012227 -0.04345195333746277 -1.4911496441294803 -0.04345195333746277 -1.499546050309966 C -0.04345195333746277 -1.5079424564904516 -0.04924257828952183 -1.5146016751853193 -0.06082382819363985 -1.5195237063945695 C -0.07240507809775798 -1.5244457376038196 -0.08688164047790536 -1.5277753469512536 -0.10425351533408245 -1.5295125344368712 C -0.12162539019025964 -1.5312497219224892 -0.1403001556606499 -1.5347240968937244 -0.16027781174525346 -1.5399356593505775 C -0.18025546782985713 -1.5451472218074307 -0.1989302333002475 -1.5518064405022987 -0.21630210815642448 -1.559913315435181 C -0.23367398301260156 -1.5680201903680637 -0.2481505453927491 -1.581483393381601 -0.25973179529686713 -1.600302924475793 C -0.27131304520098515 -1.6191224555699848 -0.2771036701530442 -1.639389642902191 -0.2771036701530442 -1.6611044864724125 C -0.2771036701530442 -1.682819330042634 -0.2765246076578383 -1.699033079908399 -0.2753664826674265 -1.7097457360697081 C -0.2742083576770146 -1.7204583922310175 -0.269431092091566 -1.7355140171063708 -0.2610346859110804 -1.7549126106957686 C -0.25263827973059483 -1.7743112042851663 -0.24076749857887386 -1.790090657279527 -0.2254223424559174 -1.8022509696788511 C -0.21007718633296102 -1.8144112820781748 -0.1863356240295191 -1.8254134694870872 -0.1541976555455915 -1.8352575319055875 C -0.12205968706166392 -1.8451015943240878 -0.08601304673509658 -1.850023625533338 -0.04605773456588935 -1.850023625533338 C -0.006102422396682128 -1.850023625533338 0.027338436701458635 -1.8487207349191248 0.05426484272853305 -1.846114953690698 C 0.08119124875560757 -1.8435091724622716 0.10232702983062303 -1.8401795631148374 0.11767218595357942 -1.8361261256483963 C 0.13301734207653582 -1.8320726881819551 0.14561195134726423 -1.8274401882203077 0.15545601376576446 -1.8222286257634548 C 0.17224882612673564 -1.813542688335366 0.18064523230722118 -1.8039881571644687 0.18064523230722118 -1.7935650322507626 C 0.18064523230722118 -1.7709815949377323 0.17253835737433865 -1.744923782653467 0.15632460750857347 -1.715391595397966 C 0.14011085764280806 -1.685859408142465 0.12722671712447675 -1.6710933145147142 0.11767218595357942 -1.6710933145147142 C 0.1081176547826821 -1.6710933145147142 0.08741617057907103 -1.676160111347766 0.05556773334274645 -1.6862937050138693 C 0.023719296106421872 -1.6964272986799727 0.00026726505058283223 -1.701494095513024 -0.014788359824770558 -1.701494095513024 C -0.0391089846234185 -1.701494095513024 -0.05126929702274241 -1.6945453455705533 -0.05126929702274241 -1.6806478456856118 C -0.05126929702274241 -1.671961908257523 -0.043017656466058374 -1.6654474551864569 -0.02651437535269019 -1.6611044864724125 C -0.010011094239322005 -1.656761517758368 0.009821796221480161 -1.6522737834205223 0.03298429602971631 -1.6476412834588752 C 0.056146795837952235 -1.643008783497228 0.07945406126998977 -1.6364943304261619 0.10290609232582881 -1.6280979242456761 C 0.12635812338166785 -1.6197015180651904 0.1463357794662714 -1.6045011275660357 0.1628390605796397 -1.5824967527482112 C 0.1793423416930079 -1.560492377930387 0.18759398224969204 -1.5326973781605038 0.18759398224969204 -1.4991117534385614 C 0.18759398224969204 -1.3856155043782048 0.10681476416846869 -1.3288673798480264 -0.054743671993978005 -1.3288673798480264 M 0.47598703841003964 -1.3288673798480264 C 0.3798626642058599 -1.3288673798480264 0.309506571038343 -1.3381323797713207 0.2649187589074885 -1.3566623796179096 C 0.24233532159445825 -1.36650644203641 0.23104360293794324 -1.3760609732073072 0.23104360293794324 -1.3853259731306018 C 0.23104360293794324 -1.4090675354340436 0.2379923528804141 -1.436862535203927 0.2518898527653557 -1.4687109724402516 C 0.2657873526502973 -1.5005594096765762 0.27794766504962143 -1.5164836282947385 0.28837078996332755 -1.5164836282947385 C 0.2941614149153865 -1.5164836282947385 0.3137047741285858 -1.5101139408474737 0.34700086760292514 -1.4973745659529438 C 0.3802969610772643 -1.484635191058414 0.4083814920947507 -1.4782655036111492 0.43125446065538375 -1.4782655036111492 C 0.454127429216017 -1.4782655036111492 0.4691830540913703 -1.4797131598491637 0.47642133528144426 -1.482608472325193 C 0.4836596164715178 -1.4855037848012227 0.48727875706655477 -1.4911496441294803 0.48727875706655477 -1.499546050309966 C 0.48727875706655477 -1.5079424564904516 0.4814881321144956 -1.5146016751853193 0.4699068822103777 -1.5195237063945695 C 0.4583256323062598 -1.5244457376038196 0.4438490699261123 -1.5277753469512536 0.4264771950699352 -1.5295125344368712 C 0.4091053202137579 -1.5312497219224892 0.39043055474336763 -1.5347240968937244 0.3704528986587642 -1.5399356593505775 C 0.3504752425741605 -1.5451472218074307 0.33180047710377025 -1.5518064405022987 0.31442860224759317 -1.559913315435181 C 0.29705672739141586 -1.5680201903680637 0.2825801650112686 -1.581483393381601 0.27099891510715046 -1.600302924475793 C 0.25941766520303244 -1.6191224555699848 0.2536270402509735 -1.639389642902191 0.2536270402509735 -1.6611044864724125 C 0.2536270402509735 -1.682819330042634 0.2542061027461793 -1.699033079908399 0.25536422773659107 -1.7097457360697081 C 0.25652235272700286 -1.7204583922310175 0.2612996183124515 -1.7355140171063708 0.2696960244929373 -1.7549126106957686 C 0.2780924306734228 -1.7743112042851663 0.28996321182514373 -1.790090657279527 0.30530836794810023 -1.8022509696788511 C 0.3206535240710565 -1.8144112820781748 0.34439508637449856 -1.8254134694870872 0.37653305485842614 -1.8352575319055875 C 0.4086710233423537 -1.8451015943240878 0.44471766366892107 -1.850023625533338 0.4846729758381282 -1.850023625533338 C 0.5246282880073353 -1.850023625533338 0.5580691471054763 -1.8487207349191248 0.5849955531325507 -1.846114953690698 C 0.6119219591596251 -1.8435091724622716 0.6330577402346406 -1.8401795631148374 0.6484028963575971 -1.8361261256483963 C 0.6637480524805536 -1.8320726881819551 0.6763426617512819 -1.8274401882203077 0.6861867241697822 -1.8222286257634548 C 0.7029795365307533 -1.813542688335366 0.7113759427112388 -1.8039881571644687 0.7113759427112388 -1.7935650322507626 C 0.7113759427112388 -1.7709815949377323 0.7032690677783561 -1.744923782653467 0.687055317912591 -1.715391595397966 C 0.6708415680468257 -1.685859408142465 0.6579574275284944 -1.6710933145147142 0.6484028963575971 -1.6710933145147142 C 0.6388483651866995 -1.6710933145147142 0.6181468809830887 -1.676160111347766 0.5862984437467641 -1.6862937050138693 C 0.5544500065104393 -1.6964272986799727 0.5309979754546005 -1.701494095513024 0.515942350579247 -1.701494095513024 C 0.49162172578059893 -1.701494095513024 0.47946141338127524 -1.6945453455705533 0.47946141338127524 -1.6806478456856118 C 0.47946141338127524 -1.671961908257523 0.48771305393795916 -1.6654474551864569 0.5042163350513275 -1.6611044864724125 C 0.5207196161646955 -1.656761517758368 0.5405525066254978 -1.6522737834205223 0.5637150064337338 -1.6476412834588752 C 0.5868775062419701 -1.643008783497228 0.6101847716740075 -1.6364943304261619 0.6336368027298463 -1.6280979242456761 C 0.6570888337856854 -1.6197015180651904 0.6770664898702891 -1.6045011275660357 0.6935697709836571 -1.5824967527482112 C 0.7100730520970254 -1.560492377930387 0.7183246926537096 -1.5326973781605038 0.7183246926537096 -1.4991117534385614 C 0.7183246926537096 -1.3856155043782048 0.6375454745724863 -1.3288673798480264 0.47598703841003964 -1.3288673798480264" fill="#3682ae" transform="matrix(1,0,0,1,0,0)" fill-rule="nonzero"></path></g></g></g><defs><clipPath id="SvgjsClipPath1002"><path d=" M -1.4801189395434788 -3.1477378790869577 h 2.9602378790869577 v 2.9602378790869577 h -2.9602378790869577 Z"></path></clipPath><clipPath id="SvgjsClipPath1001c16d95f2-1670-4685-963f-800aac15f7ae"><path d=" M -1.4801189395434788 -3.1477378790869577 L 1.480118939543479 -3.1477378790869577 L 1.480118939543479 -0.1875 L -1.4801189395434788 -0.1875 Z"></path></clipPath></defs></svg>